<svg xmlns="http://www.w3.org/2000/svg" viewBox="0 0 24 36" fill="none">
  <path fill-rule="evenodd" clip-rule="evenodd" d="M24.0003 24C24.0003 22.5 23.9995 22.5 23.9987 22.5L23.9968 22.5L23.9922 22.5L23.9797 22.5001L23.9417 22.5006C23.9107 22.5011 23.8684 22.502 23.8156 22.5038C23.7101 22.5073 23.5623 22.5141 23.3782 22.5272C23.0105 22.5535 22.495 22.6054 21.8804 22.7079C20.6582 22.9119 19.0058 23.3225 17.3352 24.1586C16.0079 24.823 14.6522 25.765 13.5001 27.0969L13.5001 0L10.5001 0L10.5001 27.0739C9.34986 25.7537 7.99907 24.8185 6.67671 24.1581C5.00311 23.3222 3.3477 22.9117 2.12336 22.7079C1.50763 22.6053 0.991247 22.5535 0.622932 22.5272C0.43852 22.5141 0.290482 22.5073 0.184824 22.5038C0.131973 22.502 0.0896549 22.5011 0.0586205 22.5006L0.0205936 22.5001L0.00808144 22.5L0.00348091 22.5L0.00159836 22.5C0.000772476 22.5 -5.72205e-06 22.5 -5.72205e-06 24C-5.72205e-06 25.5 -0.000692368 25.5 -0.00133514 25.5L0.0102901 25.5002C0.0247135 25.5004 0.0498524 25.5009 0.0849857 25.5021C0.1553 25.5044 0.265352 25.5094 0.409418 25.5196C0.698063 25.5402 1.12019 25.5822 1.63067 25.6671C2.65876 25.8383 4.00658 26.1778 5.33622 26.8419C6.66002 27.5031 7.93795 28.4713 8.88825 29.8952C9.83223 31.3096 10.5129 33.2628 10.5129 36H13.5129C13.5129 33.2622 14.1924 31.3085 15.1344 29.8939C16.0827 28.4701 17.3576 27.5022 18.678 26.8414C20.0042 26.1775 21.3486 25.8381 22.3741 25.6671C22.8833 25.5821 23.3043 25.5402 23.5922 25.5196C23.7358 25.5094 23.8456 25.5044 23.9157 25.5021C23.9507 25.5009 23.9757 25.5004 23.9901 25.5002L24.0016 25.5C24.001 25.5 24.0003 25.5 24.0003 24Z" fill="#F0F0F5"/>
</svg>
