<svg width="923" height="182" viewBox="0 0 923 182" fill="none" xmlns="http://www.w3.org/2000/svg">
<path d="M0.589844 1.35742H30.2383V72.6855L31.3125 72.4707L42.377 1.35742H72.4551L55.1602 80.3125L74.7109 180H44.0957L31.3125 93.3105H30.2383V180H0.589844V1.35742ZM95.5938 1.35742H144.363V24.668H126.102V70.2148H144.363V93.7402H126.102V156.475H144.363V180H95.5938V1.35742ZM169.973 1.35742H218.742V24.668H200.48V70.2148H218.742V93.7402H200.48V156.475H218.742V180H169.973V1.35742ZM244.352 1.35742H281.734C291.689 1.35742 298.958 2.32422 303.541 4.25781C308.196 6.11979 311.24 9.52148 312.672 14.4629C314.176 19.4043 314.928 27.1387 314.928 37.666V80.3125C314.928 88.2617 314.57 94.4922 313.854 99.0039C313.137 103.516 311.705 107.096 309.557 109.746C307.408 112.324 304.186 114.15 299.889 115.225C295.663 116.299 289.684 116.836 281.949 116.836H274.859V180H244.352V1.35742ZM274.859 24.668V93.3105H277.545C280.768 93.3105 282.737 92.666 283.453 91.377C284.169 90.0879 284.527 87.1517 284.527 82.5684V35.9473C284.527 31.1491 284.169 28.0697 283.453 26.709C282.737 25.3483 280.624 24.668 277.115 24.668H274.859ZM392.25 1.35742H427.807L439.086 86.9727H440.59L451.869 1.35742H487.426V180H460.248L461.322 74.4043H459.496L447.895 180H431.781L420.18 74.4043H418.354L419.535 180H392.25V1.35742ZM512.928 35.9473C512.928 27.64 513.286 21.3021 514.002 16.9336C514.79 12.5651 516.329 9.16341 518.621 6.72852C520.984 4.22201 524.422 2.53906 528.934 1.67969C533.445 0.748698 539.855 0.283203 548.162 0.283203C558.976 0.283203 566.746 1.14258 571.473 2.86133C576.271 4.50846 579.493 7.76693 581.141 12.6367C582.788 17.5065 583.611 25.2767 583.611 35.9473V145.41C583.611 156.009 582.824 163.743 581.248 168.613C579.673 173.483 576.486 176.813 571.688 178.604C566.889 180.394 559.191 181.289 548.592 181.289C537.706 181.289 529.865 180.43 525.066 178.711C520.268 176.992 517.046 173.662 515.398 168.721C513.751 163.779 512.928 156.009 512.928 145.41V35.9473ZM543.328 31.7578V149.814C543.328 152.464 543.722 154.398 544.51 155.615C545.298 156.761 546.587 157.334 548.377 157.334C550.096 157.334 551.277 156.761 551.922 155.615C552.638 154.398 552.996 152.464 552.996 149.814V31.7578C552.996 28.9648 552.638 26.9954 551.922 25.8496C551.206 24.6322 549.881 24.0234 547.947 24.0234C546.3 24.0234 545.118 24.668 544.402 25.957C543.686 27.2461 543.328 29.1797 543.328 31.7578ZM603.098 1.35742H632.639L639.191 122.314H640.373L647.785 1.35742H676.574L657.453 180H622.326L603.098 1.35742ZM697.242 1.35742H727.75V180H697.242V1.35742ZM754.219 1.35742H781.504L798.154 90.4102H799.551L799.014 1.35742H825.439V180H798.369L781.504 88.4766H780.107L780.752 180H754.219V1.35742ZM851.264 36.1621C851.264 25.4915 852.051 17.7572 853.627 12.959C855.202 8.16081 858.461 4.86654 863.402 3.07617C868.344 1.21419 876.257 0.283203 887.143 0.283203C897.742 0.283203 905.44 1.21419 910.238 3.07617C915.108 4.86654 918.331 8.16081 919.906 12.959C921.553 17.7572 922.377 25.4915 922.377 36.1621V62.4805H891.762V31.7578C891.762 28.8932 891.439 26.888 890.795 25.7422C890.15 24.5964 888.79 24.0234 886.713 24.0234C884.708 24.0234 883.347 24.668 882.631 25.957C881.986 27.1745 881.664 29.1081 881.664 31.7578V149.814C881.664 152.393 882.022 154.29 882.738 155.508C883.526 156.725 884.923 157.334 886.928 157.334C888.933 157.334 890.222 156.761 890.795 155.615C891.439 154.469 891.762 152.536 891.762 149.814V110.928H887.143V87.4023H922.377V180H909.594L904.545 169.688C901.322 174.056 897.742 177.1 893.803 178.818C889.936 180.465 884.779 181.289 878.334 181.289C871.459 181.289 866.052 180.215 862.113 178.066C858.246 175.846 855.453 172.516 853.734 168.076C852.087 163.636 851.264 157.799 851.264 150.566V36.1621Z" fill="#DCD8C0"/>
</svg>
